<svg xmlns="http://www.w3.org/2000/svg" version="1.2" baseProfile="tiny-ps" viewBox="0 0 1024 1024">
  <title>Inwardly</title>

  <!-- Background: solid warm cream -->
  <rect width="1024" height="1024" fill="#FDFBF8"/>

  <g transform="translate(512, 480)">

    <!-- LAYER 1: Outer petals — light indigo -->
    <path d="M 0,-70 C -35,-130 -65,-220 -45,-290 C -25,-340 25,-340 45,-290 C 65,-220 35,-130 0,-70 Z" fill="#8B7BBA" fill-opacity="0.22"/>
    <g transform="rotate(72)"><path d="M 0,-70 C -35,-130 -65,-220 -45,-290 C -25,-340 25,-340 45,-290 C 65,-220 35,-130 0,-70 Z" fill="#8B7BBA" fill-opacity="0.22"/></g>
    <g transform="rotate(144)"><path d="M 0,-70 C -35,-130 -65,-220 -45,-290 C -25,-340 25,-340 45,-290 C 65,-220 35,-130 0,-70 Z" fill="#8B7BBA" fill-opacity="0.22"/></g>
    <g transform="rotate(216)"><path d="M 0,-70 C -35,-130 -65,-220 -45,-290 C -25,-340 25,-340 45,-290 C 65,-220 35,-130 0,-70 Z" fill="#8B7BBA" fill-opacity="0.22"/></g>
    <g transform="rotate(288)"><path d="M 0,-70 C -35,-130 -65,-220 -45,-290 C -25,-340 25,-340 45,-290 C 65,-220 35,-130 0,-70 Z" fill="#8B7BBA" fill-opacity="0.22"/></g>

    <!-- LAYER 2: Mid petals — medium indigo -->
    <g transform="rotate(36)"><path d="M 0,-55 C -28,-105 -52,-170 -36,-230 C -20,-270 20,-270 36,-230 C 52,-170 28,-105 0,-55 Z" fill="#9B8BCA" fill-opacity="0.35"/></g>
    <g transform="rotate(108)"><path d="M 0,-55 C -28,-105 -52,-170 -36,-230 C -20,-270 20,-270 36,-230 C 52,-170 28,-105 0,-55 Z" fill="#9B8BCA" fill-opacity="0.35"/></g>
    <g transform="rotate(180)"><path d="M 0,-55 C -28,-105 -52,-170 -36,-230 C -20,-270 20,-270 36,-230 C 52,-170 28,-105 0,-55 Z" fill="#9B8BCA" fill-opacity="0.35"/></g>
    <g transform="rotate(252)"><path d="M 0,-55 C -28,-105 -52,-170 -36,-230 C -20,-270 20,-270 36,-230 C 52,-170 28,-105 0,-55 Z" fill="#9B8BCA" fill-opacity="0.35"/></g>
    <g transform="rotate(324)"><path d="M 0,-55 C -28,-105 -52,-170 -36,-230 C -20,-270 20,-270 36,-230 C 52,-170 28,-105 0,-55 Z" fill="#9B8BCA" fill-opacity="0.35"/></g>

    <!-- LAYER 3: Inner petals — warm gold -->
    <path d="M 0,-40 C -22,-80 -40,-130 -28,-175 C -16,-205 16,-205 28,-175 C 40,-130 22,-80 0,-40 Z" fill="#D4A854" fill-opacity="0.55"/>
    <g transform="rotate(72)"><path d="M 0,-40 C -22,-80 -40,-130 -28,-175 C -16,-205 16,-205 28,-175 C 40,-130 22,-80 0,-40 Z" fill="#D4A854" fill-opacity="0.55"/></g>
    <g transform="rotate(144)"><path d="M 0,-40 C -22,-80 -40,-130 -28,-175 C -16,-205 16,-205 28,-175 C 40,-130 22,-80 0,-40 Z" fill="#D4A854" fill-opacity="0.55"/></g>
    <g transform="rotate(216)"><path d="M 0,-40 C -22,-80 -40,-130 -28,-175 C -16,-205 16,-205 28,-175 C 40,-130 22,-80 0,-40 Z" fill="#D4A854" fill-opacity="0.55"/></g>
    <g transform="rotate(288)"><path d="M 0,-40 C -22,-80 -40,-130 -28,-175 C -16,-205 16,-205 28,-175 C 40,-130 22,-80 0,-40 Z" fill="#D4A854" fill-opacity="0.55"/></g>

    <!-- LAYER 4: Core petals — rich gold -->
    <g transform="rotate(36)"><path d="M 0,-28 C -14,-55 -26,-85 -18,-115 C -10,-138 10,-138 18,-115 C 26,-85 14,-55 0,-28 Z" fill="#E8C878" fill-opacity="0.85"/></g>
    <g transform="rotate(108)"><path d="M 0,-28 C -14,-55 -26,-85 -18,-115 C -10,-138 10,-138 18,-115 C 26,-85 14,-55 0,-28 Z" fill="#E8C878" fill-opacity="0.85"/></g>
    <g transform="rotate(180)"><path d="M 0,-28 C -14,-55 -26,-85 -18,-115 C -10,-138 10,-138 18,-115 C 26,-85 14,-55 0,-28 Z" fill="#E8C878" fill-opacity="0.85"/></g>
    <g transform="rotate(252)"><path d="M 0,-28 C -14,-55 -26,-85 -18,-115 C -10,-138 10,-138 18,-115 C 26,-85 14,-55 0,-28 Z" fill="#E8C878" fill-opacity="0.85"/></g>
    <g transform="rotate(324)"><path d="M 0,-28 C -14,-55 -26,-85 -18,-115 C -10,-138 10,-138 18,-115 C 26,-85 14,-55 0,-28 Z" fill="#E8C878" fill-opacity="0.85"/></g>

    <!-- CENTER -->
    <circle cx="0" cy="0" r="20" fill="#E8C878"/>
    <circle cx="0" cy="0" r="12" fill="#F2DCA0"/>
    <circle cx="0" cy="0" r="5" fill="#FFF5DC"/>
  </g>
</svg>